<?xml version="1.0" encoding="UTF-8"?>
<svg id="Calque_2" data-name="Calque 2" xmlns="http://www.w3.org/2000/svg" viewBox="0 0 733.92 176.4">
  <defs>
    <style>
      .cls-1 {
        fill: none;
        stroke: #15ff74;
        stroke-linecap: round;
        stroke-linejoin: round;
        stroke-width: 15px;
      }
    </style>
  </defs>
  <g id="Calque_1-2" data-name="Calque 1">
    <path d="m40.71,155.4c-7.91,0-15.52-1.33-22.84-3.99s-13.27-6.09-17.87-10.29l8.97-27.07c4.32,3.71,9.31,6.77,14.97,9.18,5.66,2.41,11.29,3.61,16.91,3.61,3.77,0,6.81-.46,9.11-1.39,2.3-.93,3.98-2.16,5.04-3.71,1.06-1.54,1.59-3.37,1.59-5.47,0-2.97-1.01-5.31-3.04-7.05-2.02-1.73-4.65-3.15-7.87-4.26-3.22-1.11-6.79-2.23-10.7-3.34-3.91-1.11-7.82-2.53-11.73-4.26-3.91-1.73-7.48-3.99-10.69-6.77-3.22-2.78-5.84-6.43-7.87-10.94-2.02-4.51-3.04-10.23-3.04-17.15,0-7.79,1.59-14.83,4.76-21.14,3.17-6.3,7.94-11.37,14.28-15.2,6.35-3.83,14.26-5.75,23.74-5.75,6.35,0,12.58.96,18.7,2.87,6.12,1.92,11.57,4.73,16.35,8.43l-8.42,27.25c-4.6-3.34-9.16-5.84-13.66-7.51-4.51-1.67-8.88-2.5-13.11-2.5-3.77,0-6.81.53-9.11,1.58-2.3,1.05-3.96,2.44-4.97,4.17-1.01,1.73-1.52,3.71-1.52,5.93,0,2.84.99,5.1,2.97,6.77,1.98,1.67,4.6,3.03,7.87,4.08,3.26,1.05,6.85,2.13,10.76,3.24,3.91,1.11,7.82,2.5,11.73,4.17,3.91,1.67,7.47,3.89,10.69,6.67,3.22,2.78,5.82,6.43,7.8,10.94,1.98,4.51,2.97,10.17,2.97,16.96,0,7.54-1.59,14.49-4.76,20.86-3.17,6.37-7.91,11.47-14.21,15.3-6.3,3.83-14.24,5.75-23.81,5.75Z"/>
    <path d="m123.09,124.44h50.51v28.37h-77.56V23.03h75.76v28.36h-48.71v73.04Zm-1.93-51.17h44.85v27.44h-44.85v-27.44Z"/>
    <path d="m204.07,152.81L162.81,23.03h29.53l34.78,112.35h-17.39l27.6-84.35h25.05l-31.4,101.77h-26.91Z"/>
    <path d="m356.78,152.81V23.03h22.49l53.27,86.39h-10.63V23.03h26.77v129.77h-22.49l-53.27-86.39h10.63v86.39h-26.77Z"/>
    <path d="m493.57,152.81V52.14h-29.67v-29.11h86.53v29.11h-29.53v100.67h-27.32Z"/>
    <path d="m592.68,124.44h50.51v28.37h-77.56V23.03h75.76v28.36h-48.71v73.04Zm-1.93-51.17h44.85v27.44h-44.85v-27.44Z"/>
    <path d="m683.42,124.44h50.51v28.37h-77.56V23.03h75.76v28.36h-48.71v73.04Zm-1.93-51.17h44.85v27.44h-44.85v-27.44Z"/>
    <polygon points="293.09 124.44 293.09 100.71 336.01 100.71 336.01 73.27 293.09 73.27 293.09 51.4 341.8 51.4 341.8 23.03 302.17 23.03 293.17 51.06 263.04 152.81 343.6 152.81 343.6 124.44 293.09 124.44"/>
    <line class="cls-1" x1="306.44" y1="7.5" x2="258.44" y2="168.9"/>
  </g>
</svg>